<?xml version="1.0" encoding="utf-8"?><!DOCTYPE svg PUBLIC "-//W3C//DTD SVG 1.1//EN" "http://www.w3.org/Graphics/SVG/1.1/DTD/svg11.dtd"><svg version="1.1" xmlns="http://www.w3.org/2000/svg" xmlns:xlink="http://www.w3.org/1999/xlink" width="26.296" height="28" viewBox="0 0 26.296 28" data-code="61572" data-tags="key"><g fill="#444" transform="scale(0.02734375 0.02734375)"><path d="M475.429 292.571c0-60.571-49.143-109.714-109.714-109.714s-109.714 49.143-109.714 109.714c0 16.571 4 32.571 10.857 47.429-14.857-6.857-30.857-10.857-47.429-10.857-60.571 0-109.714 49.143-109.714 109.714s49.143 109.714 109.714 109.714 109.714-49.143 109.714-109.714c0-16.571-4-32.571-10.857-47.429 14.857 6.857 30.857 10.857 47.429 10.857 60.571 0 109.714-49.143 109.714-109.714zM961.714 694.857c0 13.143-52.571 65.714-65.714 65.714-14.857 0-61.143-53.714-73.143-65.714l-54.857 54.857 125.714 125.714c10.286 10.286 16 24.571 16 38.857 0 32-36.571 68.571-68.571 68.571-14.286 0-28.571-5.714-38.857-16l-383.429-383.429c-60 44.571-133.143 74.857-208.571 74.857-124.571 0-210.286-86.286-210.286-210.286 0-187.429 187.429-374.857 374.857-374.857 124 0 210.286 85.714 210.286 210.286 0 75.429-30.286 148.571-74.857 208.571l202.857 202.857 54.857-54.857c-12-12-65.714-58.286-65.714-73.143 0-13.143 52.571-65.714 65.714-65.714 4.571 0 9.714 2.286 13.143 5.714 21.143 21.143 180.571 171.429 180.571 188z" /></g></svg>