<!-- Generated by IcoMoon.io -->
<svg version="1.1" xmlns="http://www.w3.org/2000/svg" width="778" height="1024" viewBox="0 0 778 1024">
<title></title>
<g id="icomoon-ignore">
</g>
<path fill="#000" d="M110.592 114.688c-110.592 114.688-114.688 131.072-102.4 503.808l12.288 385.024h737.28v-983.040l-266.24-12.288c-249.856-12.288-274.432-4.096-380.928 106.496zM716.8 512v450.56h-655.36l-12.288-360.448-12.288-356.352h106.496c81.92 0 102.4-20.48 102.4-102.4 0-102.4 8.192-106.496 237.568-94.208l233.472 12.288v450.56zM204.8 163.84c0 20.48-20.48 40.96-45.056 40.96-20.48 0-28.672-20.48-16.384-40.96 12.288-24.576 32.768-40.96 45.056-40.96 8.192 0 16.384 16.384 16.384 40.96z"></path>
<path fill="#000" d="M401.408 397.312c49.152 8.192 122.88 8.192 163.84 0 36.864-12.288-4.096-20.48-94.208-16.384-90.112 0-122.88 8.192-69.632 16.384z"></path>
<path fill="#000" d="M401.408 684.032c49.152 8.192 131.072 8.192 184.32 0 49.152-8.192 8.192-16.384-94.208-16.384s-143.36 8.192-90.112 16.384z"></path>
</svg>
