<?xml version="1.0" standalone="no"?>
<!DOCTYPE svg PUBLIC "-//W3C//DTD SVG 20010904//EN"
 "http://www.w3.org/TR/2001/REC-SVG-20010904/DTD/svg10.dtd">
<svg version="1.0" xmlns="http://www.w3.org/2000/svg"
 width="50.000000pt" height="50.000000pt" viewBox="0 0 50.000000 50.000000"
 preserveAspectRatio="xMidYMid meet">

<g transform="translate(0.000000,50.000000) scale(0.100000,-0.100000)"
fill="#000000" stroke="none">
<path d="M132 475 c-87 -44 -132 -121 -132 -225 0 -90 55 -200 101 -200 27 0
24 11 -16 50 -84 81 -83 211 3 302 60 64 128 86 211 68 46 -10 65 -21 107 -64
43 -42 54 -61 65 -109 11 -50 10 -65 -4 -111 -34 -106 -146 -177 -254 -161
-35 5 -44 4 -41 -7 3 -9 28 -14 76 -16 60 -2 79 1 122 23 54 27 101 83 121
142 6 19 9 65 7 103 -5 87 -42 151 -112 195 -42 25 -62 31 -125 33 -66 3 -83
0 -129 -23z"/>
<path d="M142 378 c-17 -17 -17 -239 0 -256 16 -16 200 -16 216 0 14 14 16 78
3 78 -5 0 -11 -12 -13 -27 l-3 -28 -95 0 -95 0 -3 48 -3 47 82 0 82 0 -21 -23
c-22 -23 -29 -47 -14 -47 4 0 26 18 47 40 l39 40 -39 40 c-21 22 -43 40 -47
40 -15 0 -8 -24 14 -47 l21 -23 -82 0 -82 0 3 48 3 47 95 0 95 0 3 -27 c2 -16
8 -28 13 -28 13 0 11 64 -3 78 -16 16 -200 16 -216 0z"/>
</g>
</svg>
