<?xml version="1.0" standalone="no"?>
<!DOCTYPE svg PUBLIC "-//W3C//DTD SVG 20010904//EN"
 "http://www.w3.org/TR/2001/REC-SVG-20010904/DTD/svg10.dtd">
<svg version="1.0" xmlns="http://www.w3.org/2000/svg"
 width="50.000000pt" height="50.000000pt" viewBox="0 0 50.000000 50.000000"
 preserveAspectRatio="xMidYMid meet">

<g transform="translate(0.000000,50.000000) scale(0.100000,-0.100000)"
fill="#000000" stroke="none">
<path d="M240 436 c0 -37 4 -66 10 -66 6 0 10 25 10 55 0 55 0 55 28 49 126
-30 212 -155 183 -269 -14 -55 -14 -55 4 -55 19 0 29 55 23 130 -8 113 -98
207 -208 218 l-50 5 0 -67z"/>
<path d="M33 383 c-21 -36 -29 -64 -31 -116 -8 -132 54 -224 176 -261 38 -12
26 21 -12 34 -19 6 -54 32 -79 58 -76 82 -85 195 -21 279 27 36 30 53 9 53 -8
0 -27 -21 -42 -47z"/>
<path d="M156 341 c-9 -13 74 -129 98 -137 24 -8 50 18 42 42 -3 11 -32 37
-63 59 -69 48 -70 49 -77 36z m105 -98 c13 -16 12 -17 -3 -4 -10 7 -18 15 -18
17 0 8 8 3 21 -13z"/>
<path d="M317 152 c-45 -46 -71 -81 -78 -106 -6 -21 -8 -40 -5 -44 3 -3 25 0
48 7 57 17 168 124 168 161 0 14 -5 31 -12 38 -25 25 -54 11 -121 -56z m98 28
c11 -17 -5 -32 -21 -19 -7 6 -11 15 -8 20 7 12 21 11 29 -1z m-39 -41 c3 -6
-10 -27 -30 -47 -28 -29 -38 -34 -48 -24 -9 9 -5 20 22 47 36 38 45 41 56 24z"/>
</g>
</svg>
