<?xml version="1.0" standalone="no"?>
<!DOCTYPE svg PUBLIC "-//W3C//DTD SVG 20010904//EN"
 "http://www.w3.org/TR/2001/REC-SVG-20010904/DTD/svg10.dtd">
<svg version="1.0" xmlns="http://www.w3.org/2000/svg"
 width="50.000000pt" height="48.000000pt" viewBox="0 0 50.000000 48.000000"
 preserveAspectRatio="xMidYMid meet">

<g transform="translate(0.000000,48.000000) scale(0.100000,-0.100000)"
fill="#000000" stroke="none">
<path d="M155 461 c-52 -23 -111 -89 -126 -140 -7 -23 -16 -41 -21 -41 -13 0
-9 -35 7 -56 15 -19 15 -19 31 1 9 13 13 31 10 50 -7 38 25 97 74 136 122 98
300 33 341 -124 40 -147 -111 -298 -259 -259 -26 7 -64 26 -84 43 -58 46 -82
36 -30 -14 40 -38 93 -57 162 -57 144 0 240 96 240 240 0 104 -53 187 -142
224 -51 22 -153 20 -203 -3z"/>
<path d="M130 332 c0 -4 31 -38 68 -75 l68 -67 47 48 c26 26 47 51 47 55 0 17
-29 4 -60 -28 l-34 -35 -56 55 c-51 50 -80 67 -80 47z"/>
</g>
</svg>
