<?xml version="1.0" standalone="no"?>
<!DOCTYPE svg PUBLIC "-//W3C//DTD SVG 20010904//EN"
 "http://www.w3.org/TR/2001/REC-SVG-20010904/DTD/svg10.dtd">
<svg version="1.0" xmlns="http://www.w3.org/2000/svg"
 width="50.000000pt" height="50.000000pt" viewBox="0 0 50.000000 50.000000"
 preserveAspectRatio="xMidYMid meet">

<g transform="translate(0.000000,50.000000) scale(0.100000,-0.100000)"
fill="#000000" stroke="none">
<path d="M125 471 c-82 -47 -125 -122 -125 -219 0 -71 8 -102 26 -102 11 0 13
15 8 73 -5 66 -3 77 23 127 38 75 93 112 172 118 72 5 121 -10 168 -51 98 -86
98 -248 0 -334 -47 -41 -96 -56 -167 -51 -41 3 -70 12 -98 31 -38 25 -40 28
-32 62 16 70 62 115 99 95 25 -13 77 -13 102 1 25 13 64 -10 81 -47 10 -21 48
-35 48 -18 0 16 -43 73 -64 88 -22 14 -23 18 -13 45 9 25 8 37 -6 66 -18 38
-74 72 -101 62 -25 -10 -19 -26 12 -33 15 -4 35 -14 44 -22 25 -22 23 -76 -4
-102 -62 -57 -152 27 -103 96 8 12 11 24 8 28 -15 14 -32 4 -48 -30 -12 -27
-14 -42 -7 -63 9 -25 6 -32 -29 -66 -40 -39 -63 -93 -57 -135 2 -18 19 -34 58
-57 48 -30 62 -33 130 -33 68 0 82 3 130 33 32 19 67 50 85 77 28 42 30 51 30
140 0 89 -2 98 -30 140 -18 27 -53 58 -85 78 -48 29 -62 32 -130 32 -64 0 -82
-4 -125 -29z"/>
</g>
</svg>
