<svg id="Layer_1" data-name="Layer 1" xmlns="http://www.w3.org/2000/svg" viewBox="0 0 175.4 164"><defs><style>.cls-1{fill:#379aff;}.cls-2{fill:#fff;}</style></defs><title>Untitled-1</title><path d="M-110.19-117.75l-54.12-31.55a27.14,27.14,0,0,0-27.37,0l-54.12,31.55A12.53,12.53,0,0,0-252-106.92v71.84a12.53,12.53,0,0,0,6.19,10.83L-191.68,7.3a27.14,27.14,0,0,0,27.37,0l54.12-31.55A12.53,12.53,0,0,0-104-35.08v-71.84A12.53,12.53,0,0,0-110.19-117.75Z" transform="translate(252 153)"/><circle class="cls-1" cx="146.05" cy="40.32" r="29.36"/><rect class="cls-2" x="90" y="60" width="13" height="44"/><path class="cls-2" d="M-186.5-48.5c-10.48,0-19-8-19-17.95V-93h13v26.55c0,2.73,2.69,4.95,6,4.95s6-2.22,6-4.95V-93h13v26.55C-167.5-56.55-176-48.5-186.5-48.5Z" transform="translate(252 153)"/><path class="cls-2" d="M-98-112.27a6.91,6.91,0,0,1,1,3.6,7.15,7.15,0,0,1-1,3.81,6.79,6.79,0,0,1-2.92,2.58,10.07,10.07,0,0,1-4.42.92,10,10,0,0,1-4.44-.92,6.8,6.8,0,0,1-2.91-2.58,7.15,7.15,0,0,1-1-3.81,6.79,6.79,0,0,1,1-3.62,6.86,6.86,0,0,1,2.7-2.5,6,6,0,0,1-1.9-2.12,5.8,5.8,0,0,1-.68-2.77,6.52,6.52,0,0,1,.78-3.13,6,6,0,0,1,2.41-2.38,8.22,8.22,0,0,1,4.08-.92,8,8,0,0,1,4,.92A5.78,5.78,0,0,1-99-122.81a6.78,6.78,0,0,1,.75,3.13,6.28,6.28,0,0,1-.61,2.79,5.67,5.67,0,0,1-1.77,2.11A6.76,6.76,0,0,1-98-112.27Zm-4.22,6.14a3.58,3.58,0,0,0,1.16-2.81,3.49,3.49,0,0,0-1.17-2.72,4.58,4.58,0,0,0-3.18-1.05,4.58,4.58,0,0,0-3.18,1.05,3.49,3.49,0,0,0-1.17,2.72,3.58,3.58,0,0,0,1.16,2.81,4.61,4.61,0,0,0,3.2,1A4.61,4.61,0,0,0-102.2-106.13Zm-5.75-15.74a2.86,2.86,0,0,0-.92,2.23,2.91,2.91,0,0,0,.94,2.21,3.53,3.53,0,0,0,2.53.88,3.3,3.3,0,0,0,2.47-.88,3,3,0,0,0,.87-2.21,3,3,0,0,0-.87-2.23,3.42,3.42,0,0,0-2.47-.83A3.66,3.66,0,0,0-107.95-121.88Z" transform="translate(252 153)"/></svg>