<!-- Generated by IcoMoon.io -->
<svg version="1.1" xmlns="http://www.w3.org/2000/svg" width="512" height="448" viewBox="0 0 512 448">
<title></title>
<g id="icomoon-ignore">
</g>
<path fill="#000" d="M145 115.25c0-13.75-9-22.75-22.75-22.75-13.5 0-27.25 9-27.25 22.75 0 13.5 13.75 22.5 27.25 22.5 13.75 0 22.75-9 22.75-22.5zM330.75 242c0-9-9-18-22.75-18-9 0-18 9-18 18 0 9.25 9 18.25 18 18.25 13.75 0 22.75-9 22.75-18.25zM271.75 115.25c0-13.75-9-22.75-22.5-22.75-13.75 0-27.25 9-27.25 22.75 0 13.5 13.5 22.5 27.25 22.5 13.5 0 22.5-9 22.5-22.5zM430.5 242c0-9-9.25-18-22.75-18-9 0-18 9-18 18 0 9.25 9 18.25 18 18.25 13.5 0 22.75-9 22.75-18.25zM364 142.75c-5.75-0.75-11.5-1-17.5-1-86 0-154 64.25-154 143.25 0 13.25 2 26 5.75 38-5.75 0.5-11.25 0.75-17 0.75-22.75 0-40.75-4.5-63.5-9l-63.25 31.75 18-54.5c-45.25-31.75-72.5-72.75-72.5-122.5 0-86.25 81.5-154 181.25-154 89 0 167.25 54.25 182.75 127.25zM512 283c0 40.75-27 77-63.5 104.25l13.75 45.25-49.75-27.25c-18.25 4.5-36.5 9.25-54.5 9.25-86.25 0-154-59-154-131.5s67.75-131.5 154-131.5c81.5 0 154 59 154 131.5z"></path>
</svg>
