<?xml version="1.0" encoding="iso-8859-1"?>
<!-- Generator: Adobe Illustrator 19.0.0, SVG Export Plug-In . SVG Version: 6.00 Build 0)  -->
<svg version="1.1" id="Layer_1" xmlns="http://www.w3.org/2000/svg" xmlns:xlink="http://www.w3.org/1999/xlink" x="0px" y="0px"
	 viewBox="0 0 512 512" style="enable-background:new 0 0 512 512;" xml:space="preserve">
<g>
	<g>
		<g>
			<path d="M352.346,73.585h-29.673c-3.873,0-6.5,0.717-7.905,2.181c-1.39,1.452-2.089,4.173-2.089,8.197v23.107
				c0,4.017,0.699,6.746,2.089,8.197c1.405,1.452,4.032,2.181,7.905,2.181h29.673c3.896,0,6.548-0.73,7.944-2.181
				c1.403-1.451,2.097-4.18,2.097-8.197V83.963c0-4.022-0.694-6.746-2.097-8.197C358.892,74.301,356.242,73.585,352.346,73.585z
				 M353.172,109.555h-31.324V81.047h31.324V109.555z"/>
			<path d="M286.659,73.585h-29.67c-3.878,0-6.515,0.717-7.91,2.181c-1.395,1.452-2.102,4.173-2.102,8.197v23.107
				c0,4.017,0.707,6.746,2.102,8.197c1.395,1.452,4.035,2.181,7.91,2.181h29.67c3.894,0,6.546-0.73,7.946-2.181
				c1.395-1.451,2.094-4.18,2.094-8.197V83.963c0-4.022-0.699-6.746-2.094-8.197C293.202,74.301,290.552,73.585,286.659,73.585z
				 M287.483,109.555h-31.332V81.047h31.332V109.555z"/>
			<path d="M461.256,0H50.752C34.793,0,21.74,13.053,21.74,29.005V483c0,15.944,13.053,29,29.013,29h410.504
				c15.949,0,29.005-13.056,29.005-29V29.005C490.26,13.053,477.204,0,461.256,0z M134.602,454.817
				c0,7.529-6.164,13.693-13.699,13.693H78.922c-7.529,0-13.699-6.162-13.699-13.693v-41.974c0-7.539,6.17-13.706,13.699-13.706
				h41.981c7.534,0,13.699,6.164,13.699,13.706V454.817z M134.602,350.766c0,7.529-6.164,13.683-13.699,13.683H78.922
				c-7.529,0-13.699-6.152-13.699-13.683V308.78c0-7.529,6.17-13.693,13.699-13.693h41.981c7.534,0,13.699,6.162,13.699,13.693
				V350.766z M134.602,246.71c0,7.529-6.164,13.686-13.699,13.686H78.922c-7.529,0-13.699-6.157-13.699-13.686v-41.987
				c0-7.529,6.17-13.693,13.699-13.693h41.981c7.534,0,13.699,6.164,13.699,13.693V246.71z M238.656,454.817h-0.003
				c0,7.529-6.152,13.693-13.688,13.693h-41.984c-7.529,0-13.688-6.162-13.688-13.693v-41.974c0-7.539,6.157-13.706,13.688-13.706
				h41.987c7.537,0,13.688,6.164,13.688,13.706V454.817z M238.656,350.766h-0.003c0,7.529-6.152,13.683-13.688,13.683h-41.984
				c-7.529,0-13.688-6.152-13.688-13.683V308.78c0-7.529,6.157-13.693,13.688-13.693h41.987c7.537,0,13.688,6.162,13.688,13.693
				V350.766z M238.656,246.71h-0.003c0,7.529-6.152,13.686-13.688,13.686h-41.984c-7.529,0-13.688-6.157-13.688-13.686v-41.987
				c0-7.529,6.157-13.693,13.688-13.693h41.987c7.537,0,13.688,6.164,13.688,13.693V246.71z M342.712,454.817
				c0,7.529-6.157,13.693-13.688,13.693h-41.992c-7.529,0-13.688-6.162-13.688-13.693v-41.974c0-7.539,6.157-13.706,13.688-13.706
				h41.992c7.529,0,13.688,6.164,13.688,13.706V454.817z M342.712,350.766c0,7.529-6.157,13.683-13.688,13.683h-41.992
				c-7.529,0-13.688-6.152-13.688-13.683V308.78c0-7.529,6.157-13.693,13.688-13.693h41.992c7.529,0,13.688,6.162,13.688,13.693
				V350.766z M342.712,246.71c0,7.529-6.157,13.686-13.688,13.686h-41.992c-7.529,0-13.688-6.157-13.688-13.686v-41.987
				c0-7.529,6.157-13.693,13.688-13.693h41.992c7.529,0,13.688,6.164,13.688,13.693V246.71z M446.769,454.817
				c0,7.529-6.157,13.693-13.696,13.693h-41.979c-7.534,0-13.693-6.162-13.693-13.693v-146.04c0-7.529,6.157-13.693,13.693-13.693
				h41.979c7.537,0,13.696,6.162,13.696,13.693V454.817z M446.769,246.71c0,7.529-6.157,13.686-13.696,13.686h-41.979
				c-7.534,0-13.693-6.157-13.693-13.686v-41.987c0-7.529,6.157-13.693,13.693-13.693h41.979c7.537,0,13.696,6.164,13.696,13.693
				V246.71z M446.769,133.86c0,7.524-6.157,13.683-13.696,13.683H78.922c-7.529,0-13.699-6.157-13.699-13.683V57.18
				c0-7.529,6.17-13.693,13.699-13.693h354.15c7.537,0,13.696,6.162,13.696,13.693V133.86z"/>
			<path d="M418.035,73.585h-29.67c-3.873,0-6.505,0.717-7.908,2.181c-1.395,1.452-2.094,4.173-2.094,8.197v23.107
				c0,4.017,0.699,6.746,2.094,8.197c1.403,1.452,4.035,2.181,7.908,2.181h29.67c3.894,0,6.556-0.73,7.949-2.181
				c1.39-1.451,2.097-4.18,2.097-8.197V83.963c0-4.022-0.707-6.746-2.097-8.197C424.589,74.301,421.929,73.585,418.035,73.585z
				 M418.865,109.555H387.54V81.047h31.324V109.555z"/>
		</g>
	</g>
</g>
<g>
</g>
<g>
</g>
<g>
</g>
<g>
</g>
<g>
</g>
<g>
</g>
<g>
</g>
<g>
</g>
<g>
</g>
<g>
</g>
<g>
</g>
<g>
</g>
<g>
</g>
<g>
</g>
<g>
</g>
</svg>
