<svg xmlns="http://www.w3.org/2000/svg" width="23" height="23" viewBox="0 0 23 23">
  <metadata><?xpacket begin="﻿" id="W5M0MpCehiHzreSzNTczkc9d"?>
<x:xmpmeta xmlns:x="adobe:ns:meta/" x:xmptk="Adobe XMP Core 5.6-c138 79.159824, 2016/09/14-01:09:01        ">
   <rdf:RDF xmlns:rdf="http://www.w3.org/1999/02/22-rdf-syntax-ns#">
      <rdf:Description rdf:about=""/>
   </rdf:RDF>
</x:xmpmeta>
                                                                                                    
                                                                                                    
                                                                                                    
                                                                                                    
                                                                                                    
                                                                                                    
                                                                                                    
                                                                                                    
                                                                                                    
                                                                                                    
                                                                                                    
                                                                                                    
                                                                                                    
                                                                                                    
                                                                                                    
                                                                                                    
                                                                                                    
                                                                                                    
                                                                                                    
                                                                                                    
                           
<?xpacket end="w"?></metadata>
<defs>
    <style>
      .cls-1 {
        fill: #fff;
        fill-rule: evenodd;
      }
    </style>
  </defs>
  <path id="Shape_248_copy" data-name="Shape 248 copy" class="cls-1" d="M323.206,566.993A4.364,4.364,0,0,0,320.4,568.1a11.5,11.5,0,1,0,6.591,10.4v-7.1c-0.022-3.037-1.974-4.41-3.78-4.41h0Zm0.909,11.508H316.75c-1.629,0-2.021-.807-0.867-1.96l2.08-2.016a4.914,4.914,0,0,0-2.742-.79,5.027,5.027,0,1,0,3.542,8.586,5.294,5.294,0,0,0,.671-0.832,1.667,1.667,0,0,1,1.406-.767,1.644,1.644,0,0,1,.9.266,1.671,1.671,0,0,1,.5,2.307,8.558,8.558,0,0,1-1.122,1.388,8.352,8.352,0,1,1-.774-12.481l1.658-1.667a1.863,1.863,0,0,1,1.208-.663c0.541,0,.9.536,0.908,1.532v7.1h-0.006Zm-10.169.072c0.232,0.564.9,1.366,2.8,1.366h1.865a4.552,4.552,0,0,1-.881,1.305,3.792,3.792,0,0,1-2.514,1.071,3.537,3.537,0,0,1-3.569-3.548,3.063,3.063,0,0,1,1.043-2.307,3.367,3.367,0,0,1,2.526-.836,3.506,3.506,0,0,1-.353.177c-1.344,1.343-1.154,2.209-.921,2.77v0Z" transform="translate(-304 -567)"/>
</svg>
