<!-- Generated by IcoMoon.io -->
<svg version="1.1" xmlns="http://www.w3.org/2000/svg" width="1024" height="1024" viewBox="0 0 1024 1024">
<title></title>
<g id="icomoon-ignore">
</g>
<path fill="#000" d="M983.438 422.856c-27.042-63.244-63.424-117.712-109.138-163.435-45.711-45.715-100.191-82.094-163.437-109.14-63.248-27.046-129.52-40.572-198.863-40.572-69.339 0-135.623 13.528-198.859 40.572-63.236 27.056-117.712 63.424-163.425 109.14-45.723 45.723-82.096 100.191-109.148 163.435-27.046 63.244-40.57 129.522-40.57 198.859 0 99.803 26.856 191.816 80.571 276.007 7.233 11.048 17.521 16.568 30.856 16.568h801.146c13.33 0 23.617-5.522 30.85-16.568 53.719-84.57 80.575-176.577 80.575-276.007 0-69.337-13.518-135.615-40.56-198.859zM460.281 204.287c14.294-14.288 31.527-21.434 51.718-21.434 20.193 0 37.425 7.147 51.714 21.434 14.288 14.28 21.438 31.521 21.438 51.712s-7.149 37.425-21.438 51.712-31.521 21.434-51.714 21.434c-20.191 0-37.431-7.147-51.718-21.434-14.28-14.288-21.43-31.521-21.43-51.712s7.141-37.429 21.43-51.712zM198.002 673.429c-14.286 14.28-31.527 21.446-51.718 21.446-20.185 0-37.425-7.165-51.712-21.446-14.288-14.274-21.426-31.521-21.426-51.714 0-20.191 7.137-37.423 21.426-51.712s31.527-21.432 51.712-21.432c20.191 0 37.439 7.143 51.718 21.432s21.43 31.521 21.43 51.712c0 20.193-7.149 37.425-21.43 51.714zM307.72 417.428c-14.294 14.284-31.527 21.434-51.72 21.434s-37.431-7.157-51.72-21.434c-14.28-14.28-21.428-31.521-21.428-51.712s7.139-37.425 21.428-51.712c14.294-14.288 31.527-21.434 51.72-21.434 20.191 0 37.431 7.147 51.72 21.434 14.28 14.288 21.428 31.521 21.428 51.712 0 20.185-7.149 37.423-21.428 51.712zM631.424 422.288l-57.72 218.283c19.062 12.945 32.776 30.274 41.158 51.998 8.37 21.714 9.521 44 3.424 66.857-7.618 29.335-24.574 51.624-50.863 66.855-26.289 15.239-54.091 19.056-83.433 11.432-29.327-7.618-51.62-24.568-66.853-50.857-15.233-26.295-19.042-54.093-11.424-83.437 6.092-22.849 18.093-41.61 36-56.267 17.901-14.677 38.28-22.953 61.137-24.862l57.716-218.287c2.664-9.903 8.378-17.435 17.136-22.578 8.768-5.134 17.903-6.373 27.432-3.709 9.535 2.67 16.862 8.284 21.998 16.852 5.156 8.58 6.579 17.817 4.291 27.72zM716.286 417.428c-14.288-14.28-21.438-31.521-21.438-51.712s7.149-37.425 21.438-51.712 31.521-21.434 51.714-21.434c20.191 0 37.423 7.147 51.712 21.434s21.44 31.521 21.44 51.712c0 20.185-7.151 37.425-21.44 51.712-14.288 14.284-31.521 21.434-51.712 21.434-20.193 0-37.425-7.149-51.714-21.434zM929.425 673.429c-14.288 14.28-31.521 21.446-51.712 21.446-20.193 0-37.425-7.165-51.714-21.446-14.288-14.274-21.432-31.521-21.432-51.714 0-20.191 7.143-37.423 21.432-51.712s31.521-21.432 51.714-21.432c20.191 0 37.423 7.143 51.712 21.432s21.424 31.521 21.424 51.712c0 20.193-7.137 37.425-21.424 51.714z"></path>
</svg>
