<!-- Generated by IcoMoon.io -->
<svg version="1.1" xmlns="http://www.w3.org/2000/svg" width="1024" height="1024" viewBox="0 0 1024 1024">
<title></title>
<g id="icomoon-ignore">
</g>
<path fill="#000" d="M276.304 503.010c37.418-17.252 73.21-25.882 107.357-25.882h453.434v-87.2c0-33.425-11.993-62.141-35.981-86.122-23.984-23.978-52.676-35.966-86.106-35.966h-296.471v-17.439c0-33.425-11.987-62.128-35.966-86.101-23.98-23.978-52.683-35.973-86.108-35.973h-174.389c-33.425 0-62.128 11.993-86.108 35.973-23.98 23.975-35.966 52.677-35.966 86.103v523.174c0 1.458 0.094 3.732 0.275 6.826 0.179 3.083 0.275 5.358 0.275 6.807l2.722-3.253 183.658-215.825c22.161-26.162 51.954-47.875 89.374-65.123z"></path>
<path fill="#000" d="M1009.566 553.963c-9.622-4.73-20.609-7.101-32.969-7.101h-592.935c-23.978 0-50.047 6.454-78.2 19.355-28.155 12.915-50.047 28.605-65.665 47.15l-183.112 215.808c-11.266 12.716-16.899 24.71-16.899 35.979 0 10.895 4.816 18.71 14.442 23.425 9.626 4.73 20.615 7.093 32.971 7.093h592.953c23.975 0 50.030-6.454 78.191-19.348 28.155-12.896 50.038-28.611 65.661-47.15l183.114-215.808c11.26-12.718 16.885-24.698 16.885-35.979 0.008-10.894-4.801-18.701-14.436-23.425z"></path>
</svg>
