<!-- Generated by IcoMoon.io -->
<svg version="1.1" xmlns="http://www.w3.org/2000/svg" width="1024" height="1024" viewBox="0 0 1024 1024">
<title></title>
<g id="icomoon-ignore">
</g>
<path d="M249.6 985.6s66.56-105.024 71.68-109.696c-96.64-97.024-337.92-365.184-83.2-628.8 68.297-71.646 164.465-116.198 271.040-116.198s202.743 44.552 270.898 116.048l0.142 0.15c70.516 73.949 113.908 174.307 113.908 284.8s-43.391 210.851-114.064 284.965l0.156-0.165 104.32 83.584c86.305-96.749 139.045-225.059 139.045-365.687 0-147.927-58.357-282.223-153.304-381.124l0.179 0.188c-91.345-94.85-219.433-153.763-361.28-153.763s-269.935 58.913-361.13 153.606l-0.15 0.157c-383.36 384.256 101.76 831.936 101.76 831.936zM640.64 1022.912l1.28-320 382.72 320.768z"></path>
</svg>
