<!-- Generated by IcoMoon.io -->
<svg version="1.1" xmlns="http://www.w3.org/2000/svg" width="1024" height="1024" viewBox="0 0 1024 1024">
<title></title>
<g id="icomoon-ignore">
</g>
<path d="M290 294.5c0-27.5-18-45.5-45.5-45.5-27 0-54.5 18-54.5 45.5 0 27 27.5 45 54.5 45 27.5 0 45.5-18 45.5-45zM661.5 548c0-18-18-36-45.5-36-18 0-36 18-36 36 0 18.5 18 36.5 36 36.5 27.5 0 45.5-18 45.5-36.5zM543.5 294.5c0-27.5-18-45.5-45-45.5-27.5 0-54.5 18-54.5 45.5 0 27 27 45 54.5 45 27 0 45-18 45-45zM861 548c0-18-18.5-36-45.5-36-18 0-36 18-36 36 0 18.5 18 36.5 36 36.5 27 0 45.5-18 45.5-36.5zM728 349.5c-11.5-1.5-23-2-35-2-172 0-308 128.5-308 286.5 0 26.5 4 52 11.5 76-11.5 1-22.5 1.5-34 1.5-45.5 0-81.5-9-127-18l-126.5 63.5 36-109c-90.5-63.5-145-145.5-145-245 0-172.5 163-308 362.5-308 178 0 334.5 108.5 365.5 254.5zM1024 630c0 81.5-54 154-127 208.5l27.5 90.5-99.5-54.5c-36.5 9-73 18.5-109 18.5-172.5 0-308-118-308-263s135.5-263 308-263c163 0 308 118 308 263z"></path>
</svg>
