<!-- Generated by IcoMoon.io -->
<svg version="1.1" xmlns="http://www.w3.org/2000/svg" width="1024" height="1024" viewBox="0 0 1024 1024">
<title></title>
<g id="icomoon-ignore">
</g>
<path fill="#000" d="M659.288 528.365c-9.352-9.352-9.352-23.379 0-32.731l350.685-350.685c9.352-9.352 14.027-23.379 14.027-32.731s-4.676-23.379-14.027-32.731l-65.461-65.461c-9.352-9.352-23.379-14.027-32.731-14.027-14.027 0-23.379 4.676-32.731 14.027l-350.685 350.685c-9.352 9.352-23.379 9.352-32.731 0l-350.685-350.685c-9.352-9.352-23.379-14.027-32.731-14.027s-23.379 4.676-32.731 14.027l-65.461 65.461c-9.352 9.352-14.027 23.379-14.027 32.731s4.676 23.379 14.027 32.731l350.685 350.685c9.352 9.352 9.352 23.379 0 32.731l-350.685 350.685c-9.352 9.352-14.027 23.379-14.027 32.731s4.676 23.379 14.027 32.731l65.461 65.461c9.352 9.352 23.379 14.027 32.731 14.027s23.379-4.676 32.731-14.027l350.685-350.685c9.352-9.352 23.379-9.352 32.731 0l350.685 350.685c9.352 9.352 23.379 14.027 32.731 14.027s23.379-4.676 32.731-14.027l65.461-65.461c9.352-9.352 14.027-23.379 14.027-32.731s-4.676-23.379-14.027-32.731l-350.685-350.685z"></path>
</svg>
