<!-- Generated by IcoMoon.io -->
<svg version="1.1" xmlns="http://www.w3.org/2000/svg" width="1024" height="1024" viewBox="0 0 1024 1024">
<title></title>
<g id="icomoon-ignore">
</g>
<path fill="#000" d="M998.927 93.336c-16.709-16.709-36.789-25.073-60.264-25.073h-853.33c-23.466 0-43.549 8.363-60.27 25.073-16.711 16.715-25.063 36.796-25.063 60.264v580.271c0 23.474 8.352 43.553 25.063 60.272 16.721 16.709 36.804 25.058 60.27 25.058h290.138c0 13.508-2.847 27.387-8.537 41.599-5.686 14.223-11.376 26.662-17.066 37.325-5.683 10.676-8.528 18.488-8.528 23.462 0 9.243 3.376 17.261 10.132 23.999 6.753 6.764 14.754 10.153 23.999 10.153h273.066c9.245 0 17.247-3.387 24-10.153 6.762-6.736 10.138-14.754 10.138-23.999 0-4.61-2.851-12.35-8.539-23.192-5.69-10.836-11.38-23.474-17.063-37.859-5.69-14.402-8.535-28.179-8.535-41.336h290.138c23.462 0 43.542-8.348 60.251-25.058 16.717-16.717 25.073-36.796 25.073-60.272v-580.271c0.006-23.468-8.358-43.549-25.075-60.264zM955.733 597.335c0 4.623-1.687 8.617-5.064 12-3.381 3.37-7.382 5.057-12.006 5.057h-853.33c-4.62 0-8.621-1.687-11.998-5.057-3.376-3.394-5.066-7.377-5.066-12v-443.735c0-4.623 1.685-8.621 5.066-11.998 3.379-3.372 7.381-5.066 11.998-5.066h853.343c4.616 0 8.625 1.689 11.993 5.066 3.377 3.379 5.064 7.377 5.064 11.998v443.735z"></path>
</svg>
