<!-- Generated by IcoMoon.io -->
<svg version="1.1" xmlns="http://www.w3.org/2000/svg" width="1024" height="1024" viewBox="0 0 1024 1024">
<title></title>
<g id="icomoon-ignore">
</g>
<path d="M219.043 353.559c-0.18-10.030-8.263-18.113-18.275-18.292h-0.017c-0.029 0-0.062 0-0.096 0-5.062 0-9.665 1.966-13.087 5.176l-164.621 164.621c-3.201 3.438-5.166 8.064-5.166 13.149s1.965 9.711 5.177 13.161l-0.011-0.012 164.631 164.678c3.418 3.201 8.027 5.167 13.095 5.167 0.027 0 0.055 0 0.082 0h-0.004c10.030-0.18 18.113-8.263 18.292-18.275v-329.373zM1024.047 792.669c-0.18-10.030-8.263-18.113-18.275-18.292h-987.991c-10.030 0.18-18.113 8.263-18.292 18.275v109.771c0.18 10.030 8.263 18.113 18.275 18.292h987.991c10.030-0.18 18.113-8.263 18.292-18.275v-109.818zM1024.047 573.114c-0.18-10.030-8.263-18.113-18.275-18.292h-622.050c-10.050 0.154-18.159 8.247-18.339 18.275v109.771c0.18 10.046 8.289 18.138 18.324 18.292h622.048c10.030-0.18 18.113-8.263 18.292-18.275v-109.771zM1024.047 353.559c-0.18-10.030-8.263-18.113-18.275-18.292h-622.050c-10.050 0.154-18.159 8.247-18.339 18.275v109.771c0.18 10.046 8.289 18.138 18.324 18.292h622.048c10.030-0.18 18.113-8.263 18.292-18.275v-109.771zM1024.047 134.004c-0.18-10.030-8.263-18.113-18.275-18.292h-987.991c-10.030 0.18-18.113 8.263-18.292 18.275v109.771c0.18 10.030 8.263 18.113 18.275 18.292h987.991c10.030-0.18 18.113-8.263 18.292-18.275v-109.678z"></path>
</svg>
