<!-- Generated by IcoMoon.io -->
<svg version="1.1" xmlns="http://www.w3.org/2000/svg" width="960" height="1024" viewBox="0 0 960 1024">
<title></title>
<g id="icomoon-ignore">
</g>
<path d="M487.296 16c-4.552 3.769-8.532 7.972-11.96 12.607l-0.136 0.193-234.048 359.040c-4.389 7.28-6.985 16.071-6.985 25.468 0 22.859 15.364 42.129 36.329 48.048l0.352 0.085c9.095 3.992 19.696 6.315 30.84 6.315 24.965 0 47.208-11.66 61.578-29.83l0.126-0.165 148.544-227.84c10.88 83.84 19.648 225.92 19.84 229.12 1.067 11.486 1.676 24.84 1.676 38.336 0 242.652-196.708 439.36-439.36 439.36-5.271 0-10.52-0.093-15.745-0.277l0.758 0.021c-3.254-0.516-7.007-0.81-10.828-0.81-30.645 0-56.866 18.944-67.591 45.759l-0.173 0.491c-0.435 2.494-0.691 5.372-0.704 8.308v0.012c2.072 30.117 27.010 53.764 57.472 53.764 0.225 0 0.45-0.001 0.674-0.004h-0.034c286.784 5.76 590.528-99.84 609.216-566.4 0.384-10.24-6.4-154.88-15.488-238.72l191.040 147.84c13.261 9.507 29.815 15.202 47.699 15.202 18.648 0 35.849-6.192 49.661-16.632l-0.207 0.15c11.927-8.576 19.603-22.414 19.603-38.045 0-16.069-8.112-30.243-20.465-38.651l-0.162-0.104-354.24-273.28c-0.768-0.64-1.856-1.28-2.56-1.92-5.419-3.695-11.626-6.93-18.208-9.4l-0.608-0.2c-0.704 0-1.28-0.64-1.856-0.64-5.993-1.954-12.894-3.118-20.055-3.2h-3.689c-0.297-0.014-0.645-0.022-0.994-0.022-1.92 0-3.783 0.241-5.561 0.696l0.155-0.034c-6.278 0.211-12.246 1.132-17.953 2.687l0.545-0.127-6.4 1.92c-7.57 2.72-14.12 6.404-19.922 10.991l0.146-0.111h-0.32z"></path>
</svg>
