<svg xmlns="http://www.w3.org/2000/svg" width="23" height="29" viewBox="0 0 23 29">
  <metadata><?xpacket begin="﻿" id="W5M0MpCehiHzreSzNTczkc9d"?>
<x:xmpmeta xmlns:x="adobe:ns:meta/" x:xmptk="Adobe XMP Core 5.6-c138 79.159824, 2016/09/14-01:09:01        ">
   <rdf:RDF xmlns:rdf="http://www.w3.org/1999/02/22-rdf-syntax-ns#">
      <rdf:Description rdf:about=""/>
   </rdf:RDF>
</x:xmpmeta>
                                                                                                    
                                                                                                    
                                                                                                    
                                                                                                    
                                                                                                    
                                                                                                    
                                                                                                    
                                                                                                    
                                                                                                    
                                                                                                    
                                                                                                    
                                                                                                    
                                                                                                    
                                                                                                    
                                                                                                    
                                                                                                    
                                                                                                    
                                                                                                    
                                                                                                    
                                                                                                    
                           
<?xpacket end="w"?></metadata>
<defs>
    <style>
      .cls-1 {
        fill: #76ae99;
        fill-rule: evenodd;
      }
    </style>
  </defs>
  <path id="bag" class="cls-1" d="M414,374.98c-0.2-1.761-.395-3.037-0.587-4.27-0.52-3.349-.969-6.24-1.109-17.366a0.658,0.658,0,0,0-.67-0.637h-3.364v-1.169A4.632,4.632,0,0,0,403.557,347a4.885,4.885,0,0,1-2.281,0,4.633,4.633,0,0,0-4.712,4.538v1.169h-3.2a0.658,0.658,0,0,0-.67.637c-0.14,11.125-.589,14.017-1.109,17.365-0.192,1.233-.39,2.509-0.587,4.271a0.631,0.631,0,0,0,.153.485,0.678,0.678,0,0,0,.469.228c3.207,0.2,6.456.307,9.658,0.307,1.523,0,3.056-.024,4.59-0.07h0c2.361-.04,5.156-0.087,7.5-0.237a0.68,0.68,0,0,0,.469-0.228A0.631,0.631,0,0,0,414,374.98h0Zm-7.069-23.442v1.169h-0.941v-1.169a4.43,4.43,0,0,0-1.2-3.023,3.257,3.257,0,0,1,2.143,3.023h0Zm-6.745,0a2.343,2.343,0,1,1,4.464,0v1.169h-4.464v-1.169h0Zm-2.28,0a3.256,3.256,0,0,1,2.142-3.023,4.429,4.429,0,0,0-1.2,3.023v1.169H397.9v-1.169Zm3.378,23.172c-2.94,0-5.92-.088-8.87-0.261,0.168-1.4.337-2.491,0.5-3.549,0.517-3.33.965-6.215,1.115-16.9h2.534v1.169a0.67,0.67,0,0,0,1.34,0V354h6.745v1.169a0.67,0.67,0,0,0,1.34,0V354h2.534c0.15,10.689.6,13.574,1.116,16.9,0.163,1.058.333,2.146,0.5,3.548-2.944.173-5.92,0.261-8.858,0.261h0Zm0,0" transform="translate(-391 -347)"/>
</svg>
