<!-- Generated by IcoMoon.io -->
<svg version="1.1" xmlns="http://www.w3.org/2000/svg" width="1536" height="1024" viewBox="0 0 1536 1024">
<title></title>
<g id="icomoon-ignore">
</g>
<path fill="#76ae99" d="M53.906 660.919v-594.651c-0.001-0.13-0.001-0.285-0.001-0.439 0-36.356 29.472-65.829 65.829-65.829 0 0 0.001 0 0.001 0h653.166c0 0 0.001 0 0.001 0 36.356 0 65.829 29.472 65.829 65.829 0 0.154-0.001 0.308-0.002 0.462v-0.024 594.651c0 12.119-9.824 21.943-21.943 21.943v0h-740.937c-12.119 0-21.943-9.824-21.943-21.943v0zM581.339 886.565c-0.621 74.865-61.455 135.314-136.407 135.314-75.338 0-136.411-61.073-136.411-136.411s61.073-136.411 136.411-136.411c0.024 0 0.048 0 0.072 0h-0.004c75.369 0.332 136.34 61.507 136.34 136.922 0 0.206 0 0.412-0.001 0.618v-0.032zM513.17 886.565c-0.29-37.428-30.698-67.657-68.167-67.657-37.649 0-68.169 30.52-68.169 68.169s30.519 68.168 68.167 68.169v0c37.685-0.166 68.169-30.753 68.169-68.461 0-0.077 0-0.155 0-0.232v0.012zM327.534 749.056h-305.591c-12.119 0-21.943 9.824-21.943 21.943v0 66.999c0 12.119 9.824 21.943 21.943 21.943h244.955c6.61-44.691 28.645-83.316 60.421-111.067l0.214-0.183zM1294.921 886.565c-0.621 74.865-61.455 135.314-136.407 135.314-75.338 0-136.411-61.073-136.411-136.411s61.073-136.411 136.411-136.411c0.024 0 0.048 0 0.072 0h-0.004c75.369 0.332 136.34 61.507 136.34 136.922 0 0.206 0 0.412-0.001 0.618v-0.032zM1226.752 886.565c-0.29-37.428-30.698-67.657-68.167-67.657-37.649 0-68.169 30.52-68.169 68.169s30.519 68.168 68.167 68.169v0c37.685-0.166 68.169-30.753 68.169-68.461 0-0.077 0-0.155 0-0.232v0.012zM1536 771.218v66.999c0 12.119-9.824 21.943-21.943 21.943v0h-177.445c-12.492-88.175-87.464-155.248-178.103-155.248s-165.611 67.073-177.992 154.292l-0.111 0.956h-357.303c-6.617-44.689-28.65-83.313-60.421-111.067l-0.214-0.183h338.798v-567.808c0-24.237 19.648-43.886 43.886-43.886v0h206.848c60.347 0.079 113.529 30.686 144.94 77.204l0.395 0.62 133.413 199.168c18.785 27.734 29.989 61.935 29.989 98.753 0 0.048 0 0.096 0 0.144v-0.008 236.105h53.321c12.119 0 21.943 9.824 21.943 21.943v0zM1313.646 419.109l-106.789-152.722c-4.008-5.676-10.534-9.342-17.917-9.362h-166.257c-12.119 0-21.943 9.824-21.943 21.943v152.576c0 12.119 9.824 21.943 21.943 21.943v0h273.042c0.045 0 0.098 0.001 0.15 0.001 12.119 0 21.943-9.824 21.943-21.943 0-4.837-1.565-9.309-4.217-12.936l0.043 0.062z"></path>
</svg>
