<svg xmlns="http://www.w3.org/2000/svg" width="22" height="22" viewBox="0 0 22 22">
  <metadata><?xpacket begin="﻿" id="W5M0MpCehiHzreSzNTczkc9d"?>
<x:xmpmeta xmlns:x="adobe:ns:meta/" x:xmptk="Adobe XMP Core 5.6-c138 79.159824, 2016/09/14-01:09:01        ">
   <rdf:RDF xmlns:rdf="http://www.w3.org/1999/02/22-rdf-syntax-ns#">
      <rdf:Description rdf:about=""/>
   </rdf:RDF>
</x:xmpmeta>
                                                                                                    
                                                                                                    
                                                                                                    
                                                                                                    
                                                                                                    
                                                                                                    
                                                                                                    
                                                                                                    
                                                                                                    
                                                                                                    
                                                                                                    
                                                                                                    
                                                                                                    
                                                                                                    
                                                                                                    
                                                                                                    
                                                                                                    
                                                                                                    
                                                                                                    
                                                                                                    
                           
<?xpacket end="w"?></metadata>
<defs>
    <style>
      .cls-1 {
        fill: #666;
        fill-rule: evenodd;
      }
    </style>
  </defs>
  <path id="gift" class="cls-1" d="M15.611,3.5A2.626,2.626,0,0,0,16,2.25,2.243,2.243,0,0,0,11.526,2H11.5V3.5h-1V2H10.476A2.244,2.244,0,0,0,6,2.25,2.618,2.618,0,0,0,6.389,3.5H0v5H1V22H21V8.5h1v-5H15.611ZM9.5,21H2V8.5H9.5V21Zm0-13.5H1v-3H9.5v3Zm0-4H8V3.474A1.326,1.326,0,0,1,7,2.25,1.251,1.251,0,0,1,9.475,2H9.5V3.5Zm2,17.5h-1V4.5h1V21Zm1-19h0.024A1.251,1.251,0,0,1,15,2.25a1.326,1.326,0,0,1-1,1.223V3.5H12.5V2ZM20,21H12.5V8.5H20V21ZM21,7.5H12.5v-3H21v3Zm0,0"/>
</svg>
