<!-- Generated by IcoMoon.io -->
<svg version="1.1" xmlns="http://www.w3.org/2000/svg" width="819" height="1024" viewBox="0 0 819 1024">
<title></title>
<g id="icomoon-ignore">
</g>
<path fill="#76ae99" d="M51.507 566.17h721.613v457.83h-721.92v-457.83zM330.342 269.21h164.198c44.193-11.473 82.617-31.791 114.967-59.082l-0.432 0.355c45.312-38.605 94.771-118.579 62.874-172.237-13.727-22.781-38.333-37.782-66.442-37.782-6.105 0-12.045 0.708-17.743 2.046l0.524-0.104c-35.371 13.963-65.144 35.511-88.423 62.772l-0.256 0.307c-32.449 32.23-61.192 68.121-85.58 107.020l-1.46 2.497c-25.861-41.391-54.603-77.279-87.009-109.486l-0.031-0.031c-23.523-27.558-53.278-49.104-87.128-62.553l-1.499-0.525c-5.18-1.236-11.127-1.945-17.239-1.945-28.119 0-52.734 15.002-66.279 37.438l-0.194 0.347c-31.898 53.658 17.562 133.632 62.874 172.237 31.914 26.943 70.34 47.262 112.525 58.281l2.009 0.446zM512 147.814c14.371-17.82 28.891-33.784 44.291-48.85l0.099-0.097c7.578-7.475 15.616-14.694 23.654-21.862 9.318-8.346 28.723-29.133 31.232-5.12-3.277 43.138-25.446 80.508-58.161 104.215l-0.411 0.284c-24.578 20.043-54.541 34.442-87.38 40.76l-1.247 0.2c15.743-26.557 31.548-49.295 48.796-70.826l-0.924 1.194zM213.658 71.68c2.509-24.013 21.914-3.226 31.232 5.12 8.038 7.168 16.077 14.387 23.654 21.914 15.522 15.145 30.042 31.093 43.584 47.864l0.807 1.032c16.324 20.337 32.129 43.075 46.345 66.872l1.527 2.76c-34.086-6.518-64.050-20.917-88.988-41.245l0.361 0.285c-33.122-23.996-55.288-61.364-58.543-104.020l-0.029-0.479zM0 318.874h819.2v197.837h-819.2v-197.837z"></path>
</svg>
