<!-- Generated by IcoMoon.io -->
<svg version="1.1" xmlns="http://www.w3.org/2000/svg" width="1024" height="1024" viewBox="0 0 1024 1024">
<title></title>
<g id="icomoon-ignore">
</g>
<path fill="#c15666" d="M512 1024c282.77 0 512-229.23 512-512s-229.23-512-512-512c-282.77 0-512 229.23-512 512v0c0.356 282.627 229.373 511.644 511.966 512h0.034zM288.654 394.98l125.497-18.261 56.092-113.778c7.771-15.491 23.53-25.937 41.728-25.937s33.957 10.446 41.606 25.669l0.122 0.268 56.092 113.778 125.497 18.261c22.741 3.34 40.003 22.716 40.003 46.124 0 13.155-5.452 25.036-14.219 33.508l-0.013 0.013-91.022 88.462 21.447 125.156c0.419 2.348 0.659 5.051 0.659 7.809 0 25.732-20.86 46.592-46.592 46.592-7.895 0-15.33-1.963-21.846-5.429l0.252 0.122-111.957-59.392-112.242 58.994c-6.264 3.343-13.7 5.306-21.594 5.306-25.732 0-46.592-20.86-46.592-46.592 0-2.759 0.24-5.462 0.7-8.089l-0.040 0.279 21.447-125.156-91.022-88.519c-8.522-8.446-13.797-20.155-13.797-33.096 0-23.334 17.153-42.662 39.537-46.061l0.258-0.032z"></path>
</svg>
