<!-- Generated by IcoMoon.io -->
<svg version="1.1" xmlns="http://www.w3.org/2000/svg" width="853" height="1024" viewBox="0 0 853 1024">
<title></title>
<g id="icomoon-ignore">
</g>
<path fill="#76ae99" d="M426.667 0c-6.097-0.439-13.211-0.69-20.383-0.69-166.52 0-301.511 134.991-301.511 301.511 0 1.103 0.006 2.204 0.018 3.304l-0.001-0.168v131.925c-0.542 2.8-2.402 5.074-4.895 6.179l-0.054 0.021c-18.66 5.689-56.889 10.752-70.77 15.644-16.404 6.117-28.060 21.239-29.009 39.2l-0.005 0.11v417.564c0.993 18.024 12.547 33.117 28.537 39.264l0.305 0.103c118.33 44.358 255.079 70.031 397.824 70.031s279.494-25.673 405.881-72.655l-8.057 2.624c16.281-6.255 27.818-21.35 28.781-39.255l0.005-0.112v-417.564c-0.953-18.071-12.609-33.193-28.708-39.21l-0.306-0.1c-13.824-4.949-52.167-9.899-70.827-15.644-2.518-1.149-4.352-3.415-4.884-6.147l-0.009-0.054v-131.925c0.010-0.933 0.016-2.036 0.016-3.14 0-166.52-134.991-301.511-301.511-301.511-7.192 0-14.325 0.252-21.391 0.747l0.951-0.053zM332.686 624.242c4.577-48.202 44.853-85.609 93.867-85.609s89.29 37.407 93.838 85.23l0.029 0.379c-0.955 32.078-19.615 59.584-46.506 73.165l-0.485 0.222v143.246c-2.132 24.264-22.355 43.152-46.99 43.152s-44.859-18.889-46.978-42.974l-0.013-0.179v-143.246c-27.376-13.803-46.035-41.308-46.987-73.262l-0.003-0.125zM614.4 311.751v103.538c-55.797-13.664-119.854-21.502-185.742-21.502s-129.946 7.838-191.291 22.632l5.549-1.13v-103.538c-0.036-1.369-0.057-2.981-0.057-4.597 0-102.614 83.185-185.799 185.799-185.799s185.799 83.185 185.799 185.799c0 1.617-0.021 3.228-0.062 4.835l0.005-0.238z"></path>
</svg>
