<svg xmlns="http://www.w3.org/2000/svg" width="29.969" height="29.969" viewBox="0 0 29.969 29.969">
  <metadata><?xpacket begin="﻿" id="W5M0MpCehiHzreSzNTczkc9d"?>
<x:xmpmeta xmlns:x="adobe:ns:meta/" x:xmptk="Adobe XMP Core 5.6-c138 79.159824, 2016/09/14-01:09:01        ">
   <rdf:RDF xmlns:rdf="http://www.w3.org/1999/02/22-rdf-syntax-ns#">
      <rdf:Description rdf:about=""/>
   </rdf:RDF>
</x:xmpmeta>
                                                                                                    
                                                                                                    
                                                                                                    
                                                                                                    
                                                                                                    
                                                                                                    
                                                                                                    
                                                                                                    
                                                                                                    
                                                                                                    
                                                                                                    
                                                                                                    
                                                                                                    
                                                                                                    
                                                                                                    
                                                                                                    
                                                                                                    
                                                                                                    
                                                                                                    
                                                                                                    
                           
<?xpacket end="w"?></metadata>
<defs>
    <style>
      .cls-1 {
        fill: #76ae99;
        fill-rule: evenodd;
      }
    </style>
  </defs>
  <path id="NovaPoshta" class="cls-1" d="M408.1,927.96h-4.072a0.745,0.745,0,0,0-.742.743v4.371a0.745,0.745,0,0,1-.742.743H400.25c-0.409,0-.506.236-0.217,0.525l5.44,5.44a0.744,0.744,0,0,0,1.05,0l5.441-5.44c0.288-.289.191-0.525-0.217-0.525h-2.163a0.745,0.745,0,0,1-.742-0.743V928.7a0.745,0.745,0,0,0-.742-0.743m-11.382,3.066c0.288,0.289.524,0.191,0.524-.217V919.188c0-.409-0.236-0.506-0.524-0.217l-5.5,5.5a0.744,0.744,0,0,0,0,1.05Zm3.4-14.716h2.423a0.744,0.744,0,0,1,.742.742v4.121a0.745,0.745,0,0,0,.742.743H408.1a0.745,0.745,0,0,0,.742-0.743v-4.121a0.744,0.744,0,0,1,.742-0.742h2.293c0.408,0,.506-0.237.217-0.525l-5.57-5.57a0.742,0.742,0,0,0-1.05,0l-5.571,5.57c-0.288.288-.191,0.525,0.218,0.525m14.764,3.009v11.359c0,0.409.237,0.506,0.525,0.218l5.373-5.372a0.746,0.746,0,0,0,0-1.05L415.41,919.1c-0.288-.289-0.525-0.192-0.525.217" transform="translate(-391.031 -910.031)"/>
</svg>
