<!-- Generated by IcoMoon.io -->
<svg version="1.1" xmlns="http://www.w3.org/2000/svg" width="1152" height="1024" viewBox="0 0 1152 1024">
<title></title>
<g id="icomoon-ignore">
</g>
<path fill="#76ae99" d="M594.688 0c-307.648 0-556.8 224.768-556.8 501.888-0.629 8.236-0.988 17.838-0.988 27.523 0 100.649 38.723 192.254 102.083 260.73l-0.232-0.253c-37.186 78.424-81.377 145.997-133.385 206.674l1.033-1.234c-9.536 10.752-8.32 29.696 5.888 28.8 117.145-6.922 225.964-35.691 324.728-82.277l-5.368 2.277c65.057 38.501 143.381 61.252 227.019 61.252 12.836 0 25.548-0.536 38.113-1.587l-1.643 0.111c307.648 0 556.8-224.768 556.8-501.888s-249.536-502.016-557.248-502.016v0zM800.896 554.24l-190.976 196.224c-3.817 4.070-9.228 6.606-15.232 6.606s-11.415-2.536-15.222-6.595l-0.010-0.011-191.232-196.48c-25.48-26.427-41.177-62.436-41.177-102.112s15.697-75.685 41.219-102.157l-0.043 0.045c25.087-26.011 60.211-42.197 99.116-42.304h0.020c41.438 12.001 75.798 37.329 98.999 70.95l0.393 0.602 7.936 16.896 7.744-16.704c23.618-34.183 57.97-59.483 98.12-71.171l1.272-0.317c0.031 0 0.068 0 0.105 0 38.991 0 74.196 16.21 99.244 42.259l0.043 0.045c25.48 26.427 41.177 62.436 41.177 102.112s-15.697 75.685-41.219 102.157l0.043-0.045z"></path>
</svg>
