<!-- Generated by IcoMoon.io -->
<svg version="1.1" xmlns="http://www.w3.org/2000/svg" width="1877" height="1024" viewBox="0 0 1877 1024">
<title></title>
<g id="icomoon-ignore">
</g>
<path fill="#76ae99" d="M415.061 355.157h-67.755v137.728h67.755c34-4.935 59.826-33.883 59.826-68.864s-25.826-63.929-59.451-68.819l-0.375-0.045zM0-0.512v1024h1877.333v-1024h-1877.333zM426.667 578.389h-79.36v174.592h-94.549v-483.243h173.909c81.161 5.206 145.018 72.308 145.018 154.325s-63.857 149.119-144.564 154.302l-0.454 0.023zM881.749 752.981h-252.587v-483.243h94.549v397.739h157.781v85.333zM1273.429 586.325c0 95.67-77.556 173.227-173.227 173.227s-173.227-77.556-173.227-173.227v0-316.587h95.232v317.269c-0.462 3.202-0.725 6.9-0.725 10.659 0 43.452 35.225 78.677 78.677 78.677s78.677-35.225 78.677-78.677c0-3.759-0.264-7.457-0.773-11.075l0.048 0.417v-317.269h95.061v316.587zM1486.763 761.685c-2.832 0.134-6.152 0.21-9.49 0.21-59.118 0-112.651-23.913-151.454-62.594l0.005 0.005 46.592-74.581c27.971 31.375 68.462 51.074 113.556 51.2h0.022c2.496 0.394 5.374 0.62 8.305 0.62 30.294 0 54.967-24.064 55.948-54.119l0.002-0.090c0-84.821-210.261-55.808-210.261-219.563 0.619-78.469 64.373-141.842 142.929-141.842 4.327 0 8.61 0.192 12.839 0.569l-0.547-0.039c1.764-0.056 3.838-0.087 5.92-0.087 52.824 0 100.88 20.416 136.707 53.788l-0.121-0.111-45.141 72.448c-25.7-25.073-60.872-40.538-99.656-40.538-0.425 0-0.849 0.002-1.273 0.006h0.065c-1.82-0.24-3.926-0.377-6.063-0.377-27.052 0-48.981 21.93-48.981 48.981 0 0.222 0.001 0.445 0.004 0.666v-0.034c0 75.349 209.579 55.125 209.579 218.112 0.058 1.522 0.091 3.308 0.091 5.103 0 79.081-64.108 143.189-143.189 143.189-5.715 0-11.351-0.335-16.891-0.986l0.672 0.064z"></path>
</svg>
