<!-- Generated by IcoMoon.io -->
<svg version="1.1" xmlns="http://www.w3.org/2000/svg" width="1078" height="1024" viewBox="0 0 1078 1024">
<title></title>
<g id="icomoon-ignore">
</g>
<path fill="#76ae99" d="M975.010 370.472v-174.888l-166.643-53.895-102.831-141.689-166.589 54.272-166.589-54.272-102.885 141.635-166.643 53.895v174.888l-102.831 141.581 102.885 141.474v174.888l166.643 53.895 102.831 141.743 166.589-54.272 166.589 54.272 102.885-141.635 166.643-53.895v-174.888l102.831-141.581zM351.178 462.093c-17.181-16.955-27.823-40.5-27.823-66.53 0-0.56 0.005-1.119 0.015-1.677l-0.001 0.084v-24.522c-0.009-0.474-0.013-1.033-0.013-1.593 0-26.2 10.634-49.916 27.822-67.067l0.002-0.002c18.36-16.847 42.942-27.172 69.935-27.172 2.397 0 4.774 0.081 7.13 0.242l-0.319-0.017c2.102-0.154 4.553-0.242 7.025-0.242 26.808 0 51.201 10.34 69.408 27.248l-0.064-0.059c16.344 16.818 26.421 39.802 26.421 65.139 0 1.239-0.024 2.473-0.072 3.7l0.005-0.177v24.522c0.054 1.182 0.085 2.568 0.085 3.961 0 25.051-9.984 47.771-26.189 64.397l0.019-0.020c-20.768 16.802-47.502 26.973-76.611 26.973s-55.844-10.171-76.842-27.153l0.231 0.181zM445.817 709.255l-50.068-25.169 226.789-362.496 50.068 25.169zM752.317 654.821c0.041 1.035 0.065 2.25 0.065 3.47 0 25.356-10.121 48.348-26.544 65.156l0.017-0.018c-18.14 16.836-42.523 27.166-69.319 27.166-2.348 0-4.677-0.079-6.985-0.235l0.312 0.017c-2.008 0.137-4.352 0.214-6.715 0.214-27.194 0-51.98-10.313-70.659-27.241l0.089 0.079c-17.027-16.8-27.575-40.13-27.575-65.924 0-0.887 0.012-1.771 0.037-2.652l-0.003 0.13v-24.414c-0.017-0.673-0.027-1.464-0.027-2.259 0-25.822 10.497-49.192 27.456-66.076l0.003-0.003c18.389-16.843 42.994-27.163 70.009-27.163 2.351 0 4.685 0.078 6.997 0.232l-0.314-0.017c2.086-0.151 4.519-0.237 6.972-0.237 26.892 0 51.371 10.334 69.682 27.247l-0.069-0.063c16.433 16.851 26.57 39.909 26.57 65.335 0 1.113-0.019 2.221-0.058 3.325l0.004-0.16v24.576zM453.255 420.379c5.088-6.601 8.155-14.989 8.155-24.093 0-0.834-0.026-1.661-0.076-2.482l0.006 0.113v-24.36c0.044-0.704 0.068-1.526 0.068-2.354 0-9.291-3.127-17.852-8.385-24.688l0.071 0.095c-5.613-6.646-13.951-10.838-23.269-10.838-0.669 0-1.332 0.022-1.99 0.064l0.090-0.005c-0.546-0.033-1.185-0.052-1.829-0.052-9.587 0-18.199 4.172-24.121 10.799l-0.028 0.031c-6.035 7.158-9.702 16.484-9.702 26.667 0 0.099 0 0.197 0.001 0.296v-0.015 24.36c0 0.013 0 0.029 0 0.044 0 10.129 3.736 19.385 9.904 26.467l-0.041-0.048c5.949 6.659 14.562 10.831 24.149 10.831 0.643 0 1.282-0.019 1.916-0.056l-0.087 0.004c0.49 0.028 1.063 0.043 1.639 0.043 9.394 0 17.812-4.18 23.495-10.782l0.034-0.041zM649.324 592.842c-0.578-0.037-1.253-0.059-1.933-0.059-9.523 0-18.069 4.179-23.906 10.803l-0.030 0.035c-5.804 6.969-9.327 16.016-9.327 25.885 0 0.184 0.001 0.368 0.004 0.551v-0.028 24.36c0.044 10.226 4.149 19.484 10.785 26.253l-0.006-0.006c6.071 6.826 14.877 11.104 24.682 11.104 0.133 0 0.266-0.001 0.399-0.002h-0.020c1.169 0.158 2.52 0.248 3.892 0.248 8.997 0 17.092-3.868 22.71-10.032l0.022-0.024c4.356-6.989 6.939-15.474 6.939-24.563 0-1.048-0.034-2.087-0.102-3.118l0.007 0.14v-23.821c0.018-0.447 0.028-0.971 0.028-1.498 0-9.472-3.325-18.168-8.87-24.983l0.057 0.073c-5.66-6.641-14.033-10.825-23.382-10.825-0.59 0-1.177 0.017-1.759 0.050l0.081-0.004z"></path>
</svg>
