<!-- Generated by IcoMoon.io -->
<svg version="1.1" xmlns="http://www.w3.org/2000/svg" width="1609" height="1024" viewBox="0 0 1609 1024">
<title></title>
<g id="icomoon-ignore">
</g>
<path fill="#76ae99" d="M1609.143 376.832c-3.814-113.572-63.499-212.423-152.31-270.351l-1.29-0.789c-99.161-66.19-221.085-105.625-352.219-105.625s-253.059 39.435-354.56 107.093l2.341-1.468c-25.565 18.397-47.958 38.4-68.077 60.508l-0.311 0.347c-52.542-14.908-112.884-23.48-175.229-23.48-0.419 0-0.837 0-1.256 0.001h0.064c-3.235-0.062-7.051-0.098-10.874-0.098-127.705 0-246.176 39.536-343.841 107.037l2.020-1.321c-92.745 56.145-153.782 156.489-153.782 271.089 0 114.42 60.845 214.629 151.945 270.037l1.398 0.79-45.934 176.055c-0.945 3.468-1.488 7.45-1.488 11.558 0 14.743 6.99 27.854 17.837 36.198l0.107 0.079c7.662 5.883 17.387 9.43 27.939 9.435h0.001c8.314-0.003 16.108-2.229 22.821-6.115l-0.219 0.117 228.206-129.243c31.076 5.014 66.91 7.886 103.411 7.899h0.013c3.016 0.054 6.573 0.085 10.138 0.085 127.802 0 246.371-39.529 344.148-107.028l-2.030 1.325c25.532-18.387 47.9-38.364 68.006-60.437l0.309-0.344c52.612 14.862 113.033 23.407 175.449 23.407 0.393 0 0.787 0 1.18-0.001h-0.062c0.751 0.003 1.641 0.005 2.53 0.005 35.759 0 70.879-2.741 105.159-8.024l-3.827 0.485 228.206 129.243c6.528 3.723 14.344 5.92 22.673 5.925h0.001c0.023 0 0.049 0 0.076 0 25.247 0 45.714-20.467 45.714-45.714 0-4.081-0.535-8.038-1.538-11.803l0.072 0.319-46.519-176.347c89.745-58.834 149.282-157.342 153.581-270.002l0.019-0.626zM1379.035 588.946c-13.087 8.194-21.663 22.533-21.663 38.876 0 4.094 0.538 8.063 1.548 11.839l-0.073-0.319 26.843 102.4-148.041-83.456c-6.516-3.772-14.335-5.998-22.674-5.998v0c-0.041 0-0.090 0-0.139 0-2.821 0-5.581 0.266-8.254 0.775l0.274-0.043c-31.084 5.816-66.846 9.143-103.385 9.143-0.142 0-0.284 0-0.426 0h0.022c-228.425 0-414.281-128-414.281-285.257s185.856-285.257 414.281-285.257 414.281 128 414.281 285.257c-6.32 92.263-60.146 170.653-136.985 211.436l-1.401 0.678zM876.837 335.067h-0.004c0.026 0 0.052 0 0.077 0 29.357 0 53.165 23.757 53.248 53.102v-0.004c0 0.026 0 0.051 0 0.077 0 29.368-23.807 53.175-53.175 53.175s-53.175-23.807-53.175-53.175c0-29.316 23.724-53.091 53.029-53.175l502.199 253.879zM1529.929 588.946h-0.004c0.026 0 0.052 0 0.077 0 29.357 0 53.165 23.757 53.248 53.102v-0.004c0 0.026 0 0.051 0 0.077 0 29.368-23.807 53.175-53.175 53.175s-53.175-23.807-53.175-53.175c0-29.316 23.724-53.091 53.029-53.175h-150.894zM1529.929 588.946h-0.004c0.026 0 0.052 0 0.077 0 29.357 0 53.165 23.757 53.248 53.102v-0.004c0 0.026 0 0.051 0 0.077 0 29.368-23.807 53.175-53.175 53.175s-53.175-23.807-53.175-53.175c0-29.316 23.724-53.091 53.029-53.175h-150.894zM1379.035 588.946h150.894c-29.305 0.083-53.029 23.858-53.029 53.175 0 29.368 23.807 53.175 53.175 53.175s53.175-23.807 53.175-53.175c0-0.026 0-0.051 0-0.077v0.004c-0.125-29.354-23.949-53.102-53.321-53.102 0 0 0 0 0 0v0z"></path>
</svg>
