<!-- Generated by IcoMoon.io -->
<svg version="1.1" xmlns="http://www.w3.org/2000/svg" width="1024" height="1024" viewBox="0 0 1024 1024">
<title></title>
<g id="icomoon-ignore">
</g>
<path fill="#76ae99" d="M24.704 520.128h90.496c0.038 0 0.083 0 0.128 0 13.515 0 24.476-10.938 24.512-24.445v-0.003c-0.361-5.646-0.566-12.243-0.566-18.888 0-72.232 24.277-138.795 65.118-191.972l-0.552 0.748c68.811-87.768 174.843-143.638 293.924-143.638 112.89 0 214.052 50.212 282.371 129.521l0.409 0.485-117.376-33.408c-1.3-0.242-2.795-0.38-4.322-0.38-5.278 0-10.171 1.651-14.19 4.465l0.080-0.053c-5.25 3.636-8.963 9.172-10.153 15.594l-0.023 0.15-11.456 64c-0.23 1.257-0.361 2.703-0.361 4.18 0 12.034 8.718 22.033 20.183 24.024l0.146 0.021 291.52 51.2c1.289 0.244 2.772 0.383 4.287 0.384h0.001c5.289-0.007 10.192-1.658 14.225-4.47l-0.081 0.054c5.25-3.636 8.963-9.172 10.153-15.594l0.023-0.15 51.2-288c0.229-1.256 0.36-2.702 0.36-4.179 0-12.069-8.746-22.096-20.246-24.088l-0.146-0.021-64.768-11.328c-1.313-0.248-2.823-0.39-4.366-0.39-12.049 0-22.079 8.649-24.218 20.077l-0.024 0.153-21.696 105.024c-90.325-109.495-226.026-178.759-377.904-178.759-156.001 0-294.934 73.075-384.436 186.862l-0.796 1.050c-67.323 83.973-110.118 190.196-116.106 306.151l-0.054 1.305c0.002 6.741 2.769 12.836 7.228 17.212l0.004 0.004c4.476 4.393 10.615 7.104 17.388 7.104 0.007 0 0.014 0 0.021 0h-0.001zM24.704 520.128l974.656-16.32h-90.56c-0.038 0-0.083 0-0.128 0-13.515 0-24.476 10.938-24.512 24.445v0.003c0.36 5.64 0.565 12.23 0.565 18.868 0 72.239-24.277 138.807-65.116 191.992l0.552-0.748c-68.849 87.705-174.871 143.527-293.931 143.527-112.866 0-214.015-50.165-282.367-129.414l-0.406-0.481 117.376 33.408c1.282 0.233 2.757 0.366 4.263 0.366 5.296 0 10.207-1.645 14.252-4.452l-0.083 0.054c5.235-3.651 8.942-9.18 10.152-15.592l0.024-0.152 11.456-64c0.23-1.26 0.362-2.709 0.362-4.189 0-12.047-8.714-22.059-20.183-24.077l-0.147-0.021-291.52-50.816c-1.316-0.249-2.83-0.392-4.377-0.392-12.027 0-22.042 8.617-24.206 20.014l-0.024 0.154-51.2 288c-0.229 1.256-0.36 2.702-0.36 4.179 0 12.069 8.746 22.096 20.246 24.088l0.146 0.021 64.768 11.264c1.316 0.249 2.83 0.392 4.377 0.392 12.027 0 22.042-8.617 24.206-20.014l0.024-0.154 21.632-105.024c90.325 109.495 226.026 178.759 377.904 178.759 156.001 0 294.934-73.075 384.436-186.862l0.796-1.050c67.39-84.035 110.215-190.354 116.171-306.414l0.053-1.298c-0.002-6.741-2.769-12.836-7.228-17.212l-0.004-0.004c-4.479-4.409-10.622-7.141-17.403-7.168h-0.005z"></path>
</svg>
