<?xml version="1.0" encoding="iso-8859-1"?>
<!-- Generator: Adobe Illustrator 19.0.0, SVG Export Plug-In . SVG Version: 6.00 Build 0)  -->
<svg version="1.1" id="Layer_1" xmlns="http://www.w3.org/2000/svg" xmlns:xlink="http://www.w3.org/1999/xlink" x="0px" y="0px"
	 viewBox="0 0 512.054 512.054" style="enable-background:new 0 0 512.054 512.054;" xml:space="preserve">
<g>
	<g>
		<path d="M509.04,184.454L391.707,67.12c-2.027-2.027-4.693-3.093-7.573-3.093H356.4L327.493,35.12
			c-0.107-0.213-0.427-0.213-0.533-0.32c-0.747-0.64-1.493-1.173-2.453-1.6c-0.32-0.213-0.64-0.32-0.96-0.427
			c-1.173-0.427-2.347-0.64-3.627-0.747h-128c-1.28,0-2.453,0.213-3.627,0.747c-0.32,0.107-0.64,0.32-0.96,0.427
			c-0.853,0.427-1.707,0.96-2.453,1.6c-0.213,0.107-0.427,0.213-0.533,0.32l-28.8,28.907h-27.52c-2.88,0-5.547,1.173-7.573,3.093
			L3.12,184.454c-4.16,4.16-4.16,10.88,0,15.04l64,64c4.267,4.053,10.88,4.053,15.04,0l35.093-35.093v240.96
			c0,5.867,4.8,10.667,10.667,10.667h256c5.867,0,10.667-4.8,10.667-10.667V228.4l35.2,35.2c4.16,4.16,10.88,4.16,15.04,0l64-64
			C513.093,195.44,513.093,188.72,509.04,184.454z M336.88,74.694l-48.96,48.96l-16.96-16.96l48.96-48.96L336.88,74.694z
			 M294.213,53.36L255.92,91.654L217.627,53.36H294.213z M191.92,57.734l48.96,48.96l-16.96,16.96l-48.96-48.96L191.92,57.734z
			 M437.36,240.987l-45.867-45.76c-4.16-4.16-10.88-4.16-15.04,0c-2.027,2.027-3.093,4.693-3.093,7.467v256H138.693v-256
			c0-5.867-4.8-10.667-10.667-10.667c-2.88,0-5.547,1.173-7.573,3.093l-45.76,45.867l-48.96-48.96L132.4,85.36h23.147l60.907,60.907
			c4.16,4.16,10.88,4.16,15.04,0l13.76-13.76v133.867c0,5.333,3.84,10.133,9.067,10.88c6.613,0.96,12.267-4.16,12.267-10.56V132.4
			l13.76,13.76c4.16,4.16,10.88,4.16,15.04,0l61.12-60.8h23.253l106.667,106.667L437.36,240.987z"/>
	</g>
</g>
<g>
</g>
<g>
</g>
<g>
</g>
<g>
</g>
<g>
</g>
<g>
</g>
<g>
</g>
<g>
</g>
<g>
</g>
<g>
</g>
<g>
</g>
<g>
</g>
<g>
</g>
<g>
</g>
<g>
</g>
</svg>
