<!-- Generated by IcoMoon.io -->
<svg version="1.1" xmlns="http://www.w3.org/2000/svg" width="1609" height="1024" viewBox="0 0 1609 1024">
<title></title>
<g id="icomoon-ignore">
</g>
<path fill="#76ae99" d="M1040.823 948.882c-1.839 0.013-4.014 0.021-6.191 0.021-127.843 0-249.514-26.425-359.849-74.111l5.884 2.264c-103.869-49.918-225.186-81.443-353.232-87.045l-1.95-0.068c-51.564 0.171-101.351 7.477-148.521 20.983l3.844-0.942c-17.073 5.278-36.873 8.884-57.325 10.063l-0.678 0.031c-0.51 0.014-1.111 0.022-1.714 0.022-15.993 0-30.697-5.519-42.311-14.757l0.139 0.107v153.6c72.772 14.755 156.42 23.2 242.039 23.2 30.056 0 59.869-1.041 89.406-3.088l-3.984 0.221s-12.507-80.091 113.298-53.175 637.513 228.352 1084.709-41.472c2.877-8.74 4.537-18.8 4.537-29.247 0-19.222-5.617-37.131-15.299-52.177l0.23 0.382 0.512 2.779-17.993 9.947c-155.7 81.559-339.825 130.227-535.13 132.237l-0.642 0.005zM40.302 99.328c0.658 0 1.463 0.658 2.121 1.097 3.365 1.975 6.949 3.877 10.386 5.851s8.558 4.974 12.654 7.314c-5.148 3.552-8.479 9.419-8.479 16.064 0 1.016 0.078 2.014 0.228 2.989l-0.014-0.109c5.047 41.765 15.726 133.632 19.749 209.262 5.047 95.086-51.2 330.021 2.121 421.083 3.6 6.19 7.669 11.54 12.31 16.333l-0.022-0.022c7.406 7.663 17.776 12.42 29.257 12.42 0.772 0 1.539-0.022 2.301-0.064l-0.106 0.005c58.526-14.304 127.799-25.038 198.667-29.984l4.012-0.224c133.744 4.882 258.803 37.222 371.281 91.511l-5.567-2.423c101.37 44.082 219.452 69.727 343.524 69.727 2.196 0 4.391-0.008 6.583-0.024l-0.338 0.002c191.183-2.428 370.769-49.739 529.438-131.843l-6.613 3.112c-0.799-3.38-1.627-6.142-2.593-8.839l0.179 0.574c-46.958-148.699-494.373-58.075-547.621-143.872-54.272-87.259-170.789-138.021-184.247-188.709-33.105-66.494-71.021-123.813-114.952-175.892l1.068 1.3v-188.197c-27.549-26.698-64.685-43.645-105.762-45.193l-0.295-0.009c-41.189 1.29-78.17 18.308-105.338 45.215l0.012-0.012c-36.859 32.13-85.379 51.719-138.475 51.719-2.052 0-4.098-0.029-6.136-0.087l0.299 0.007c-48.915-0.721-95.15-11.419-137.011-30.14l2.209 0.883h-79.506c-0.512-4.535-1.097-9.216-1.755-14.117s-1.463-9.435-2.414-14.117c-3.455-24.435-13.068-46.151-27.207-64.141l0.218 0.287c-10.694-11.322-25.81-18.37-42.572-18.37-12.855 0-24.741 4.145-34.396 11.172l0.168-0.116c-19.512 7.034-33.948 23.705-37.688 44.116l-0.054 0.355c4.069 21.405 19.631 38.357 39.897 44.368l0.404 0.103zM56.978 48.128c4.947-3.111 10.854-5.163 17.193-5.696l0.142-0.010c0.034 0 0.074 0 0.114 0 4.271 0 8.078 1.99 10.543 5.093l0.021 0.028c7.244 9.642 12.398 21.264 14.562 33.907l0.067 0.47c0.439 1.829 0.951 3.584 1.317 5.559-2.633-2.121-5.486-3.584-8.119-5.559-10.971-7.314-21.943-13.824-31.305-19.017-4.681-2.56-10.386-5.632-14.629-8.558 2.856-1.968 6.227-4.029 9.706-5.916l0.607-0.301z"></path>
</svg>
