<!-- Generated by IcoMoon.io -->
<svg version="1.1" xmlns="http://www.w3.org/2000/svg" width="1253" height="1024" viewBox="0 0 1253 1024">
<title></title>
<g id="icomoon-ignore">
</g>
<path fill="#76ae99" d="M1057.337 579.413l193.024 413.98c2.189 3.116 3.498 6.988 3.498 11.166 0 10.808-8.762 19.57-19.57 19.57-0.792 0-1.572-0.047-2.339-0.138l0.093 0.009h-1210.88c-0.674 0.082-1.455 0.129-2.246 0.129-10.808 0-19.57-8.762-19.57-19.57 0-4.178 1.309-8.050 3.54-11.228l-0.042 0.063 193.024-413.98c3.563-6.783 10.338-11.454 18.249-12l0.069-0.004h165.49c6.089 0.423 11.462 3.182 15.287 7.378l0.016 0.018c11.378 13.54 22.756 26.738 34.133 39.822s21.732 25.031 32.54 37.888h-196.494c-7.98 0.55-14.755 5.221-18.26 11.882l-0.059 0.122-127.886 274.148h1015.239l-127.829-274.261c-3.563-6.783-10.338-11.454-18.249-12l-0.069-0.004h-196.836c10.809-12.857 21.675-25.486 32.54-37.888s22.756-26.34 34.133-39.822c3.848-4.192 9.221-6.931 15.234-7.335l0.069-0.004h165.831c7.984 0.538 14.764 5.213 18.26 11.881l0.058 0.122zM910.336 296.505c0 226.19-180.338 268.629-265.159 486.002-2.843 7.786-10.185 13.244-18.802 13.244s-15.959-5.458-18.757-13.105l-0.044-0.139c-76.516-195.982-230.684-249.742-260.21-424.334-3.64-17.578-5.723-37.78-5.723-58.469 0-150.854 110.786-275.832 255.435-298.013l1.68-0.212c6.77-0.564 14.653-0.886 22.611-0.886 159.671 0 289.109 129.439 289.109 289.109 0 2.432-0.030 4.857-0.090 7.274l0.007-0.358zM776.363 296.505c-3.57-80.045-69.331-143.588-149.933-143.588-82.883 0-150.073 67.19-150.073 150.073 0 82.874 67.175 150.058 150.045 150.073h0.001c83.263-2.020 149.988-69.997 149.988-153.558 0-1.055-0.011-2.108-0.032-3.158l0.003 0.157z"></path>
</svg>
